<svg width="16" height="16" viewBox="0 0 16 16" fill="none" xmlns="http://www.w3.org/2000/svg">
<path d="M8.3604 1.48678C8.26613 1.38874 8.13599 1.33334 7.99998 1.33334C7.86397 1.33334 7.73383 1.38874 7.63956 1.48678L3.4729 5.82012C3.2815 6.01917 3.28771 6.33569 3.48676 6.52709C3.68581 6.71848 4.00233 6.71228 4.19373 6.51322L7.99998 2.55472L11.8062 6.51322C11.9976 6.71228 12.3141 6.71848 12.5132 6.52709C12.7123 6.33569 12.7185 6.01917 12.5271 5.82012L8.3604 1.48678ZM8.3604 14.5132C8.26613 14.6113 8.13599 14.6667 7.99998 14.6667C7.86397 14.6667 7.73383 14.6113 7.63956 14.5132L3.4729 10.1799C3.2815 9.98084 3.28771 9.66432 3.48676 9.47292C3.68581 9.28152 4.00233 9.28773 4.19373 9.48678L7.99998 13.4453L11.8062 9.48678C11.9976 9.28773 12.3141 9.28152 12.5132 9.47292C12.7123 9.66432 12.7185 9.98084 12.5271 10.1799L8.3604 14.5132Z" fill="#AEAEB4"/>
</svg>
