<svg width="20" height="20" viewBox="0 0 20 20" fill="none" xmlns="http://www.w3.org/2000/svg">
<path d="M12.1751 2.05872L12.1111 2.00259C11.8661 1.81546 11.515 1.83417 11.2912 2.05872L11.2353 2.12296C11.0488 2.36882 11.0675 2.72127 11.2912 2.94582L12.9341 4.59317H7.08329L6.88901 4.5966C3.98746 4.69926 1.66663 7.09237 1.66663 10.0295C1.66663 11.4383 2.20055 12.7219 3.07638 13.6877L3.13669 13.7456C3.24576 13.8388 3.38715 13.895 3.54163 13.895C3.8868 13.895 4.16663 13.6142 4.16663 13.2678C4.16663 13.1234 4.11805 12.9905 4.0364 12.8845L3.87029 12.6922C3.27457 11.9689 2.91663 11.0412 2.91663 10.0295C2.91663 7.71997 4.78211 5.84771 7.08329 5.84771H12.8175L11.2912 7.38129L11.2353 7.44552C11.0488 7.69139 11.0675 8.04383 11.2912 8.26838C11.5353 8.51334 11.931 8.51334 12.1751 8.26838L14.8268 5.6071L14.8827 5.54286C15.0691 5.297 15.0505 4.94456 14.8268 4.72001L12.1751 2.05872ZM16.8583 6.30923C16.7499 6.21854 16.6104 6.16397 16.4583 6.16397C16.1131 6.16397 15.8333 6.44481 15.8333 6.79124C15.8333 6.94682 15.8897 7.08916 15.9826 7.19768C16.666 7.94257 17.0833 8.93713 17.0833 10.0295C17.0833 12.3391 15.2178 14.2113 12.9166 14.2113H7.13163L8.71943 12.6187L8.7804 12.5477C8.94485 12.3247 8.94317 12.0171 8.77537 11.7959L8.71943 11.7316L8.64872 11.6704C8.42652 11.5054 8.12003 11.5071 7.89955 11.6755L7.83555 11.7316L5.1839 14.3929L5.12293 14.4639C4.95848 14.6869 4.96016 14.9945 5.12796 15.2158L5.1839 15.28L7.83555 17.9413L7.90565 18.002C8.15032 18.1842 8.49754 18.164 8.71943 17.9413C8.94317 17.7167 8.96182 17.3643 8.77537 17.1184L8.71943 17.0542L7.13663 15.4659H12.9166L13.1109 15.4624C16.0125 15.3598 18.3333 12.9667 18.3333 10.0295C18.3333 8.61831 17.7975 7.33269 16.919 6.36637L16.8583 6.30923Z" fill="#AEAEB4"/>
</svg>
