<svg width="32" height="32" viewBox="0 0 32 32" fill="none" xmlns="http://www.w3.org/2000/svg">
<path d="M11.9998 29.3333H19.9998C26.6665 29.3333 29.3332 26.6667 29.3332 20V12C29.3332 5.33334 26.6665 2.66667 19.9998 2.66667H11.9998C5.33317 2.66667 2.6665 5.33334 2.6665 12V20C2.6665 26.6667 5.33317 29.3333 11.9998 29.3333Z" fill="#191A1F"/>
<path d="M11.9998 29.3333H19.9998C26.6665 29.3333 29.3332 26.6667 29.3332 20V12C29.3332 5.33334 26.6665 2.66667 19.9998 2.66667H11.9998C5.33317 2.66667 2.6665 5.33334 2.6665 12V20C2.6665 26.6667 5.33317 29.3333 11.9998 29.3333Z" stroke="#191A1F" stroke-width="2" stroke-linecap="round" stroke-linejoin="round"/>
<path d="M11.9998 29.3333H19.9998C26.6665 29.3333 29.3332 26.6667 29.3332 20V12C29.3332 5.33334 26.6665 2.66667 19.9998 2.66667H11.9998C5.33317 2.66667 2.6665 5.33334 2.6665 12V20C2.6665 26.6667 5.33317 29.3333 11.9998 29.3333Z" stroke="url(#paint0_linear_292_155)" stroke-opacity="0.1" stroke-width="2" stroke-linecap="round" stroke-linejoin="round"/>
<path d="M16.4937 11.84H23.4937" stroke="white" stroke-width="1.5" stroke-linecap="round" stroke-linejoin="round"/>
<path d="M8.50635 11.84L9.50635 12.84L12.5063 9.84001" stroke="white" stroke-width="1.5" stroke-linecap="round" stroke-linejoin="round"/>
<path d="M16.4937 21.1733H23.4937" stroke="white" stroke-width="1.5" stroke-linecap="round" stroke-linejoin="round"/>
<path d="M8.50635 21.1733L9.50635 22.1733L12.5063 19.1733" stroke="white" stroke-width="1.5" stroke-linecap="round" stroke-linejoin="round"/>
<defs>
<linearGradient id="paint0_linear_292_155" x1="15.9998" y1="-0.999995" x2="15.9998" y2="37.6667" gradientUnits="userSpaceOnUse">
<stop stop-color="white"/>
<stop offset="1" stop-color="white" stop-opacity="0"/>
</linearGradient>
</defs>
</svg>
